# Blender v2.78 (sub 0) OBJ File: 'couloir.blend'
# www.blender.org
mtllib couloir.mtl
o Cube
v 1.312866 0.010360 8.013562
v -1.349576 0.010360 8.013495
v 2.380189 4.756359 8.012547
v -2.382223 4.756359 8.014507
v -0.001017 4.756359 8.013528
v 2.377661 -0.006069 8.013371
v 1.314303 3.458097 -8.118774
v 1.314548 3.458097 8.012738
v -2.384750 -0.006069 8.013685
v -1.348142 3.458097 -8.117194
v -1.347897 3.458097 8.014318
v 1.312621 0.010360 -8.117949
v -1.349821 0.010360 -8.118018
v 2.378925 2.375145 8.012959
v 1.313707 1.734228 8.013149
v 1.313462 1.734228 -8.118361
v -2.383486 2.375145 8.014096
v -1.348736 1.734228 8.013906
v -1.348981 1.734228 -8.117606
v -1.349603 0.010360 6.221105
v -1.349630 0.010360 4.428714
v -1.349658 0.010360 2.636324
v -1.349685 0.010360 0.843934
v -1.349712 0.010360 -0.948456
v -1.349739 0.010360 -2.740846
v -1.349767 0.010360 -4.533237
v -1.349794 0.010360 -6.325627
v -1.348115 3.458097 -6.324804
v -1.348087 3.458097 -4.532414
v -1.348060 3.458097 -2.740024
v -1.348033 3.458097 -0.947633
v -1.348006 3.458097 0.844757
v -1.347978 3.458097 2.637147
v -1.347951 3.458097 4.429538
v -1.347924 3.458097 6.221928
v 1.314330 3.458097 -6.326384
v 1.314357 3.458097 -4.533994
v 1.314384 3.458097 -2.741604
v 1.314412 3.458097 -0.949214
v 1.314439 3.458097 0.843176
v 1.314466 3.458097 2.635566
v 1.314493 3.458097 4.427957
v 1.314521 3.458097 6.220347
v 1.312839 0.010360 6.221172
v 1.312811 0.010360 4.428782
v 1.312784 0.010360 2.636392
v 1.312757 0.010360 0.844002
v 1.312730 0.010360 -0.948389
v 1.312702 0.010360 -2.740779
v 1.312675 0.010360 -4.533169
v 1.312648 0.010360 -6.325559
v 1.313680 1.734228 6.220760
v 1.313652 1.734228 4.428370
v 1.313625 1.734228 2.635979
v 1.313598 1.734228 0.843589
v 1.313571 1.734228 -0.948801
v 1.313543 1.734228 -2.741191
v 1.313516 1.734228 -4.533581
v 1.313489 1.734228 -6.325972
v -1.348764 1.734228 6.221516
v -1.348791 1.734228 4.429125
v -1.348818 1.734228 2.636735
v -1.348845 1.734228 0.844345
v -1.348872 1.734228 -0.948045
v -1.348900 1.734228 -2.740435
v -1.348927 1.734228 -4.532825
v -1.348954 1.734228 -6.325215
v -3.392281 0.011354 -0.948425
v -3.392308 0.011354 -2.740816
v -3.390630 3.459092 -2.739993
v -3.390602 3.459092 -0.947602
v -3.391442 1.735223 -0.948014
v -3.391469 1.735223 -2.740404
vt 0.1078 0.9195
vt 0.0533 0.9719
vt 0.1078 0.9719
vt 0.1426 0.8845
vt 0.1749 0.8316
vt 0.1750 0.9040
vt 0.0616 0.9370
vt 0.0302 0.9040
vt 0.0616 0.8845
vt 0.8028 0.8605
vt 0.6554 0.2589
vt 0.9717 0.9711
vt 0.1426 0.9370
vt 0.0302 0.9764
vt 0.2476 0.8424
vt 0.1666 0.8968
vt 0.2476 0.8969
vt 0.7771 0.5718
vt 0.8937 0.4934
vt 0.7771 0.4934
vt 0.2272 0.8468
vt 0.2926 0.7839
vt 0.2272 0.7839
vt 0.2272 0.9343
vt 0.2926 0.8714
vt 0.2272 0.8714
vt 0.1750 0.9764
vt 0.0301 0.8316
vt 0.0616 0.8321
vt 0.0756 0.8261
vt 0.0212 0.8785
vt 0.0757 0.8785
vt 0.2945 0.8131
vt 0.2302 0.8750
vt 0.2946 0.8750
vt 0.2302 0.8131
vt 0.1659 0.8750
vt 0.1659 0.8131
vt 0.1016 0.8750
vt 0.1016 0.8131
vt 0.0372 0.8750
vt 0.2761 0.9237
vt 0.2216 0.9761
vt 0.2761 0.9761
vt 0.0819 0.9070
vt 0.0149 0.9864
vt 0.0149 0.9070
vt 0.1846 0.8261
vt 0.1302 0.8785
vt 0.1847 0.8785
vt 0.1301 0.8261
vt 0.0224 0.8483
vt 0.0878 0.7854
vt 0.0224 0.7854
vt 0.0878 0.8483
vt 0.1532 0.7854
vt 0.1532 0.8483
vt 0.2186 0.7854
vt 0.2186 0.8483
vt 0.2840 0.7854
vt 0.0223 0.9850
vt 0.0877 0.9221
vt 0.0223 0.9221
vt 0.0310 0.9343
vt 0.0964 0.8714
vt 0.0310 0.8714
vt 0.0964 0.9343
vt 0.1618 0.8714
vt 0.1618 0.9343
vt 0.0316 0.9464
vt 0.0970 0.8835
vt 0.0316 0.8835
vt 0.8623 0.9267
vt 0.7235 0.7900
vt 0.8623 0.7900
vt 0.1624 0.9464
vt 0.2278 0.8835
vt 0.1624 0.8835
vt 0.2278 0.9464
vt 0.2932 0.8835
vt 0.0181 0.8651
vt 0.0834 0.8022
vt 0.0181 0.8022
vt 0.0310 0.8468
vt 0.0964 0.7839
vt 0.0310 0.7839
vt 0.0964 0.8468
vt 0.1618 0.7839
vt 0.1618 0.8468
vt 0.7772 0.5707
vt 0.8937 0.4923
vt 0.7772 0.4923
vt 0.0501 0.5341
vt 0.1667 0.4556
vt 0.0501 0.4556
vt 0.7772 0.5704
vt 0.8937 0.4919
vt 0.7772 0.4919
vt 0.0517 0.5337
vt 0.1682 0.4553
vt 0.0517 0.4553
vt 0.7772 0.5715
vt 0.8937 0.4931
vt 0.7772 0.4930
vt 0.0517 0.5334
vt 0.1682 0.4549
vt 0.0517 0.4549
vt 0.7772 0.5725
vt 0.8937 0.4941
vt 0.7771 0.4941
vt 0.0525 0.5351
vt 0.1691 0.4566
vt 0.0525 0.4566
vt 0.1187 0.7716
vt 0.0377 0.8261
vt 0.1187 0.8261
vt 0.0377 0.8806
vt 0.1187 0.8806
vt 0.0377 0.9351
vt 0.1187 0.9351
vt 0.0377 0.9896
vt 0.1187 0.9896
vt 0.1929 0.7709
vt 0.1120 0.8253
vt 0.1929 0.8253
vt 0.1120 0.8798
vt 0.1929 0.8798
vt 0.1120 0.9343
vt 0.1929 0.9343
vt 0.1120 0.9888
vt 0.1929 0.9888
vt 0.2694 0.9143
vt 0.2149 0.9667
vt 0.2694 0.9667
vt 0.2149 0.9143
vt 0.1604 0.9667
vt 0.1604 0.9143
vt 0.1059 0.9667
vt 0.1059 0.9143
vt 0.0515 0.9667
vt 0.1400 0.8986
vt 0.0855 0.9510
vt 0.1400 0.9510
vt 0.1489 0.9864
vt 0.0819 0.9864
vt 0.2167 0.9195
vt 0.1623 0.9719
vt 0.2168 0.9719
vt 0.1623 0.9195
vt 0.5011 0.8256
vt 0.3697 0.9599
vt 0.5104 0.9605
vt 0.4977 0.6922
vt 0.3765 0.8256
vt 0.5019 0.8256
vt 0.8903 0.5742
vt 0.8009 0.6527
vt 0.8903 0.6527
vt 0.2365 0.9067
vt 0.1695 0.9861
vt 0.1695 0.9067
vt 0.3035 0.9067
vt 0.2365 0.9861
vt 0.1489 0.9070
vt 0.0533 0.9195
vt 0.1425 0.8321
vt 0.6712 0.4058
vt 0.1666 0.8423
vt 0.8937 0.5718
vt 0.2926 0.8468
vt 0.2926 0.9343
vt 0.0212 0.8261
vt 0.0372 0.8131
vt 0.2216 0.9237
vt 0.2840 0.8483
vt 0.0877 0.9850
vt 0.0970 0.9464
vt 0.7235 0.9267
vt 0.2932 0.9464
vt 0.0835 0.8651
vt 0.8937 0.5707
vt 0.1667 0.5341
vt 0.8937 0.5704
vt 0.1682 0.5337
vt 0.8937 0.5715
vt 0.1682 0.5334
vt 0.8937 0.5725
vt 0.1691 0.5351
vt 0.0377 0.7716
vt 0.1120 0.7708
vt 0.0514 0.9143
vt 0.0855 0.8986
vt 0.3771 0.8256
vt 0.3807 0.6922
vt 0.8009 0.5742
vt 0.3035 0.9861
vn 1.0000 -0.0005 -0.0000
vn 0.0001 0.0002 1.0000
vn 0.0000 -0.0002 1.0000
vn 0.0001 -0.0073 1.0000
vn 0.0006 0.0003 1.0000
vn 0.0000 -1.0000 -0.0000
vn 0.0000 1.0000 0.0000
vn -1.0000 0.0005 0.0000
vn -0.0000 0.0002 1.0000
vn 0.0002 -0.0002 1.0000
vn 0.0005 1.0000 -0.0000
vn -0.0000 0.0002 -1.0000
vn -0.0005 -1.0000 -0.0000
vn 0.0002 0.0002 1.0000
vn -0.0000 0.0131 0.9999
vn 0.0004 -0.0002 1.0000
vn 0.0001 -0.0002 1.0000
usemtl e1
s off
f 27/1/1 19/2/1 67/3/1
f 15/4/2 6/5/2 14/6/2
f 11/7/3 17/8/3 18/9/3
f 1/10/4 9/11/4 6/12/4
f 8/13/5 4/14/5 11/7/5
f 36/15/6 10/16/6 7/17/6
f 27/18/7 12/19/7 13/20/7
f 36/21/8 16/22/8 59/23/8
f 59/24/8 12/25/8 51/26/8
f 8/13/9 14/6/9 3/27/9
f 18/9/10 9/28/10 2/29/10
f 67/30/1 10/31/1 28/32/1
f 18/33/1 35/34/1 11/35/1
f 60/36/1 34/37/1 35/34/1
f 61/38/1 33/39/1 34/37/1
f 62/40/1 32/41/1 33/39/1
f 63/42/1 31/43/1 32/44/1
f 65/45/3 69/46/3 25/47/3
f 65/48/1 29/49/1 30/50/1
f 66/51/1 28/32/1 29/49/1
f 15/52/8 44/53/8 1/54/8
f 52/55/8 45/56/8 44/53/8
f 53/57/8 46/58/8 45/56/8
f 54/59/8 47/60/8 46/58/8
f 55/61/8 48/62/8 47/63/8
f 56/64/8 49/65/8 48/66/8
f 57/67/8 50/68/8 49/65/8
f 58/69/8 51/26/8 50/68/8
f 8/70/8 52/71/8 15/72/8
f 43/73/8 53/74/8 52/75/8
f 42/76/8 54/77/8 53/78/8
f 41/79/8 55/80/8 54/77/8
f 40/81/8 56/82/8 55/83/8
f 39/84/8 57/85/8 56/86/8
f 38/87/8 58/88/8 57/85/8
f 37/89/8 59/23/8 58/88/8
f 2/90/7 44/91/7 20/92/7
f 20/93/7 45/94/7 21/95/7
f 21/96/7 46/97/7 22/98/7
f 22/99/7 47/100/7 23/101/7
f 23/102/7 48/103/7 24/104/7
f 24/105/7 49/106/7 25/107/7
f 25/108/7 50/109/7 26/110/7
f 26/111/7 51/112/7 27/113/7
f 8/114/6 35/115/6 43/116/6
f 43/116/6 34/117/6 42/118/6
f 42/118/6 33/119/6 41/120/6
f 41/120/6 32/121/6 40/122/6
f 40/123/6 31/124/6 39/125/6
f 39/125/6 30/126/6 38/127/6
f 38/127/6 29/128/6 37/129/6
f 37/129/6 28/130/6 36/131/6
f 2/132/1 60/133/1 18/134/1
f 20/135/1 61/136/1 60/133/1
f 21/137/1 62/138/1 61/136/1
f 22/139/1 63/140/1 62/138/1
f 23/141/1 64/142/1 63/143/1
f 65/45/3 70/144/3 73/145/3
f 25/146/1 66/147/1 65/148/1
f 26/149/1 67/3/1 66/147/1
f 72/150/1 70/151/1 71/152/1
f 68/153/1 73/154/1 72/155/1
f 25/156/11 68/157/11 24/158/11
f 64/159/12 71/160/12 31/161/12
f 24/162/12 72/163/12 64/159/12
f 30/164/13 71/160/13 70/144/13
f 27/1/1 13/165/1 19/2/1
f 15/4/14 1/166/14 6/5/14
f 11/7/3 4/14/3 17/8/3
f 1/10/15 2/167/15 9/11/15
f 8/13/16 3/27/16 4/14/16
f 36/15/6 28/168/6 10/16/6
f 27/18/7 51/169/7 12/19/7
f 36/21/8 7/170/8 16/22/8
f 59/24/8 16/171/8 12/25/8
f 8/13/9 15/4/9 14/6/9
f 18/9/17 17/8/17 9/28/17
f 67/30/1 19/172/1 10/31/1
f 18/33/1 60/36/1 35/34/1
f 60/36/1 61/38/1 34/37/1
f 61/38/1 62/40/1 33/39/1
f 62/40/1 63/173/1 32/41/1
f 63/42/1 64/174/1 31/43/1
f 65/45/3 73/145/3 69/46/3
f 65/48/1 66/51/1 29/49/1
f 66/51/1 67/30/1 28/32/1
f 15/52/8 52/55/8 44/53/8
f 52/55/8 53/57/8 45/56/8
f 53/57/8 54/59/8 46/58/8
f 54/59/8 55/175/8 47/60/8
f 55/61/8 56/176/8 48/62/8
f 56/64/8 57/67/8 49/65/8
f 57/67/8 58/69/8 50/68/8
f 58/69/8 59/24/8 51/26/8
f 8/70/8 43/177/8 52/71/8
f 43/73/8 42/178/8 53/74/8
f 42/76/8 41/79/8 54/77/8
f 41/79/8 40/179/8 55/80/8
f 40/81/8 39/180/8 56/82/8
f 39/84/8 38/87/8 57/85/8
f 38/87/8 37/89/8 58/88/8
f 37/89/8 36/21/8 59/23/8
f 2/90/7 1/181/7 44/91/7
f 20/93/7 44/182/7 45/94/7
f 21/96/7 45/183/7 46/97/7
f 22/99/7 46/184/7 47/100/7
f 23/102/7 47/185/7 48/103/7
f 24/105/7 48/186/7 49/106/7
f 25/108/7 49/187/7 50/109/7
f 26/111/7 50/188/7 51/112/7
f 8/114/6 11/189/6 35/115/6
f 43/116/6 35/115/6 34/117/6
f 42/118/6 34/117/6 33/119/6
f 41/120/6 33/119/6 32/121/6
f 40/123/6 32/190/6 31/124/6
f 39/125/6 31/124/6 30/126/6
f 38/127/6 30/126/6 29/128/6
f 37/129/6 29/128/6 28/130/6
f 2/132/1 20/135/1 60/133/1
f 20/135/1 21/137/1 61/136/1
f 21/137/1 22/139/1 62/138/1
f 22/139/1 23/191/1 63/140/1
f 23/141/1 24/192/1 64/142/1
f 65/45/3 30/164/3 70/144/3
f 25/146/1 26/149/1 66/147/1
f 26/149/1 27/1/1 67/3/1
f 72/150/1 73/193/1 70/151/1
f 68/153/1 69/194/1 73/154/1
f 25/156/11 69/195/11 68/157/11
f 64/159/12 72/163/12 71/160/12
f 24/162/12 68/196/12 72/163/12
f 30/164/13 31/161/13 71/160/13
l 5 4
l 3 5
