# Blender v2.77 (sub 0) OBJ File: 'poubelle.blend'
# www.blender.org
mtllib poubelle.mtl
o Cube
v 0.900760 0.112074 -0.919183
v 0.900760 0.112074 0.919183
v -0.937606 0.112074 0.919183
v -0.937605 0.112074 -0.919183
v 0.103582 4.530779 -0.552273
v 0.103581 4.530779 0.547965
v -1.015419 4.530779 0.547964
v -1.015419 4.530779 -0.552274
v 1.000000 3.259088 -1.000000
v 1.000000 3.259088 1.000000
v -1.000000 3.259088 1.000000
v -1.000000 3.259088 -1.000000
v 0.923364 3.449506 -0.960687
v 0.923363 3.449506 0.966999
v -1.000000 3.449506 0.966998
v -1.000000 3.449506 -0.960688
v 1.028357 3.282442 -1.028357
v 1.031830 3.438184 -1.031829
v 1.028357 3.282442 1.028357
v 1.031829 3.438184 1.031830
v -1.028357 3.282442 1.028357
v -1.031830 3.438184 1.031829
v -1.028357 3.282442 -1.028357
v -1.031829 3.438184 -1.031830
vt 0.5030 0.4363
vt 0.5030 0.6773
vt 0.2764 0.6773
vt 0.2764 0.4363
vt 0.9272 0.8145
vt 0.9272 0.9611
vt 0.7916 0.9610
vt 0.7916 0.8145
vt 0.9221 0.7988
vt 0.7916 0.7453
vt 0.7916 0.6010
vt 0.9221 0.5461
vt 0.4144 0.9471
vt 0.2764 0.8397
vt 0.2764 0.6930
vt 0.4144 0.6950
vt 0.9249 0.5304
vt 0.7916 0.4755
vt 0.7916 0.3313
vt 0.9249 0.2777
vt 0.7768 0.0079
vt 0.7645 0.4170
vt 0.5379 0.4170
vt 0.5302 0.0079
vt 0.2610 0.7226
vt 0.2575 0.7263
vt 0.0109 0.7263
vt 0.0074 0.7226
vt 0.2788 0.4204
vt 0.2688 0.0079
vt 0.5154 0.0079
vt 0.5054 0.4204
vt 0.7645 0.4328
vt 0.7768 0.8418
vt 0.5302 0.8418
vt 0.5379 0.4328
vt 0.2440 0.0079
vt 0.2540 0.4206
vt 0.0074 0.4206
vt 0.0174 0.0079
vt 0.9294 0.1545
vt 0.7916 0.2620
vt 0.7916 0.0099
vt 0.9294 0.0079
vt 0.0074 0.4363
vt 0.0114 0.4448
vt 0.0114 0.6975
vt 0.0074 0.7068
vt 0.2616 0.4363
vt 0.2483 0.4448
vt 0.2616 0.7068
vt 0.2483 0.6975
vt 0.2610 0.9921
vt 0.2575 0.9884
vt 0.4824 0.9630
vt 0.4632 0.9635
vt 0.4632 0.6930
vt 0.4824 0.6934
vt 0.0074 0.9921
vt 0.0109 0.9884
vt 0.9926 0.5478
vt 0.9736 0.5482
vt 0.9736 0.2777
vt 0.9926 0.2782
vt 0.4292 0.6934
vt 0.4484 0.6930
vt 0.4484 0.9635
vt 0.4292 0.9630
vt 0.9397 0.2777
vt 0.9588 0.2782
vt 0.9588 0.5478
vt 0.9397 0.5482
vn 0.0000 -1.0000 0.0000
vn 0.0000 1.0000 -0.0000
vn 0.7969 0.6042 0.0000
vn -0.0000 0.3614 0.9324
vn -0.9999 -0.0143 -0.0000
vn 0.0000 -0.0257 -0.9997
vn 0.0000 -0.7719 -0.6357
vn -0.9998 -0.0198 -0.0000
vn -0.0000 -0.0257 0.9997
vn 0.9995 -0.0315 0.0000
vn 0.0000 0.3533 -0.9355
vn -0.3351 0.9422 -0.0000
vn -0.0000 0.9851 0.1720
vn 0.1038 0.9946 -0.0000
vn 0.6357 -0.7719 0.0000
vn 0.9998 -0.0223 0.0000
vn -0.0000 -0.7719 0.6357
vn -0.0000 -0.0223 0.9998
vn -0.6357 -0.7719 -0.0000
vn -0.9998 -0.0223 -0.0000
vn 0.0000 0.9876 -0.1572
vn 0.0000 -0.0223 -0.9998
usemtl poubelle
s off
f 1/1/1 2/2/1 3/3/1 4/4/1
f 5/5/2 8/6/2 7/7/2 6/8/2
f 13/9/3 5/10/3 6/11/3 14/12/3
f 14/13/4 6/14/4 7/15/4 15/16/4
f 15/17/5 7/18/5 8/19/5 16/20/5
f 9/21/6 1/22/6 4/23/6 12/24/6
f 17/25/7 9/26/7 12/27/7 23/28/7
f 3/29/8 11/30/8 12/31/8 4/32/8
f 2/33/9 10/34/9 11/35/9 3/36/9
f 1/37/10 9/38/10 10/39/10 2/40/10
f 5/41/11 13/42/11 16/43/11 8/44/11
f 22/45/12 15/46/12 16/47/12 24/48/12
f 20/49/13 14/50/13 15/46/13 22/45/13
f 18/51/14 13/52/14 14/50/14 20/49/14
f 9/26/15 17/25/15 19/53/15 10/54/15
f 17/55/16 18/56/16 20/57/16 19/58/16
f 10/54/17 19/53/17 21/59/17 11/60/17
f 19/61/18 20/62/18 22/63/18 21/64/18
f 11/60/19 21/59/19 23/28/19 12/27/19
f 21/65/20 22/66/20 24/67/20 23/68/20
f 13/52/21 18/51/21 24/48/21 16/47/21
f 18/69/22 17/70/22 23/71/22 24/72/22
