# Blender v2.78 (sub 0) OBJ File: 'room.blend'
# www.blender.org
mtllib room_cluster.mtl
o Cube.001
v 2.830109 -0.028482 7.999792
v -2.981750 -0.028482 7.944518
v -2.830109 -0.028482 -7.999793
v 2.981750 -0.028482 -7.944514
v 2.830107 4.073082 7.999794
v 2.981749 4.073082 -7.944517
v -2.830109 4.073081 -7.999794
v -2.981751 4.073081 7.944511
v 1.429966 2.101336 7.986477
v -1.581609 2.101336 7.957829
v -1.569213 2.101335 6.853850
v 1.440399 2.101335 6.889494
v 1.429967 -0.024004 7.986474
v -1.581608 -0.024004 7.957835
v 1.440401 -0.024004 6.889491
v -1.571175 -0.024004 6.860851
vt 0.3428 0.0135
vt 0.6572 0.0135
vt 0.6572 0.4647
vt 0.3428 0.4647
vt 0.0094 0.9430
vt 0.0094 0.4918
vt 0.3239 0.4918
vt 0.3239 0.9430
vt 0.6977 0.4918
vt 0.6977 0.7256
vt 0.6872 0.7256
vt 0.6761 0.4918
vt 0.9906 0.4647
vt 0.6761 0.4647
vt 0.6761 0.0135
vt 0.9906 0.0135
vt 0.3428 0.4918
vt 0.6572 0.4918
vt 0.6572 0.9430
vt 0.3428 0.9430
vt 0.0098 0.1222
vt 0.0098 0.3560
vt 0.0094 0.4647
vt 0.0094 0.0135
vt 0.1727 0.1222
vt 0.3239 0.0135
vt 0.1727 0.3560
vt 0.3239 0.4647
vt 0.7166 0.7256
vt 0.7166 0.4918
vt 0.7382 0.4918
vt 0.7382 0.7256
vt 0.6977 0.7527
vt 0.6977 0.9865
vt 0.6761 0.9865
vt 0.6872 0.7527
vt 0.7787 0.4918
vt 0.7787 0.7256
vt 0.7571 0.7256
vt 0.7571 0.4918
vn 0.0000 -1.0000 0.0000
vn -0.0000 1.0000 -0.0000
vn -1.0000 -0.0000 -0.0095
vn 1.0000 0.0000 0.0095
vn -0.0095 0.0001 1.0000
vn -0.0095 0.0000 1.0000
vn 0.9999 -0.0004 0.0104
usemtl room_cluster
s 1
f 1/1/1 2/2/1 3/3/1 4/4/1
f 5/5/2 6/6/2 7/7/2 8/8/2
f 9/9/1 10/10/1 11/11/1 12/12/1
f 2/13/3 8/14/3 7/15/3 3/16/3
f 5/17/4 1/18/4 4/19/4 6/20/4
f 13/21/5 14/22/5 2/23/6 1/24/6
f 9/25/6 13/21/5 1/24/6 5/26/6
f 14/22/5 10/27/6 8/28/6 2/23/6
f 10/27/6 9/25/6 5/26/6 8/28/6
f 13/29/3 9/30/3 12/31/3 15/32/3
f 10/33/7 14/34/7 16/35/7 11/36/7
f 14/37/2 13/38/2 15/39/2 16/40/2
