# Blender v2.78 (sub 0) OBJ File: 'tm.blend'
# www.blender.org
mtllib tm.mtl
o Cube
v -3.802756 -0.092217 -6.511204
v -3.802756 0.827103 -6.511204
v -3.802756 -0.092217 -6.599976
v -3.802756 0.827103 -6.599976
v -3.762020 -0.092217 -6.511204
v -3.762020 0.827103 -6.511204
v -3.762020 -0.092217 -6.599976
v -3.762020 0.827103 -6.599976
v -3.802756 -0.092217 -2.442577
v -3.802756 0.827103 -2.442577
v -3.802756 -0.092217 -2.531349
v -3.802756 0.827103 -2.531349
v -3.762020 -0.092217 -2.442577
v -3.762020 0.827103 -2.442577
v -3.762020 -0.092217 -2.531349
v -3.762020 0.827103 -2.531349
v -2.976630 -0.092217 -2.442577
v -2.976630 0.827103 -2.442577
v -2.976630 -0.092217 -2.531349
v -2.976630 0.827103 -2.531349
v -2.935894 -0.092217 -2.442577
v -2.935894 0.827103 -2.442577
v -2.935894 -0.092217 -2.531349
v -2.935894 0.827103 -2.531349
v -2.976630 -0.092217 -6.485952
v -2.976630 0.827103 -6.485952
v -2.976630 -0.092217 -6.574724
v -2.976630 0.827103 -6.574724
v -2.935894 -0.092217 -6.485952
v -2.935894 0.827103 -6.485952
v -2.935894 -0.092217 -6.574724
v -2.935894 0.827103 -6.574724
v -3.820513 0.801283 -2.387636
v -3.820513 0.846631 -2.387636
v -3.820512 0.801283 -6.667238
v -3.820512 0.846631 -6.667238
v -2.902742 0.801283 -2.387636
v -2.902742 0.846631 -2.387636
v -2.902743 0.801283 -6.667238
v -2.902743 0.846631 -6.667238
v -3.802756 -0.092217 -1.912664
v -3.802756 0.827103 -1.912664
v -3.802756 -0.092217 -2.001436
v -3.802756 0.827103 -2.001436
v -3.762020 -0.092217 -1.912663
v -3.762020 0.827103 -1.912663
v -3.762020 -0.092217 -2.001436
v -3.762020 0.827103 -2.001436
v -3.802756 -0.092217 2.155963
v -3.802756 0.827103 2.155963
v -3.802757 -0.092217 2.067191
v -3.802757 0.827103 2.067191
v -3.762020 -0.092217 2.155963
v -3.762020 0.827103 2.155963
v -3.762020 -0.092217 2.067191
v -3.762020 0.827103 2.067191
v -2.976630 -0.092217 2.155963
v -2.976630 0.827103 2.155963
v -2.976630 -0.092217 2.067192
v -2.976630 0.827103 2.067192
v -2.935894 -0.092217 2.155963
v -2.935894 0.827103 2.155963
v -2.935894 -0.092217 2.067192
v -2.935894 0.827103 2.067192
v -2.976630 -0.092217 -1.887411
v -2.976630 0.827103 -1.887411
v -2.976630 -0.092217 -1.976183
v -2.976630 0.827103 -1.976183
v -2.935894 -0.092217 -1.887411
v -2.935894 0.827103 -1.887411
v -2.935894 -0.092217 -1.976183
v -2.935894 0.827103 -1.976183
v -3.820512 0.801283 2.210904
v -3.820512 0.846631 2.210904
v -3.820512 0.801283 -2.068698
v -3.820512 0.846631 -2.068698
v -2.902743 0.801283 2.210904
v -2.902743 0.846631 2.210904
v -2.902742 0.801283 -2.068698
v -2.902742 0.846631 -2.068698
v -3.802756 -0.092217 2.435003
v -3.802756 0.827103 2.435003
v -3.802756 -0.092217 2.346231
v -3.802756 0.827103 2.346231
v -3.762020 -0.092217 2.435003
v -3.762020 0.827103 2.435003
v -3.762020 -0.092217 2.346231
v -3.762020 0.827103 2.346231
v -3.802756 -0.092217 6.503629
v -3.802756 0.827103 6.503629
v -3.802756 -0.092217 6.414858
v -3.802756 0.827103 6.414858
v -3.762020 -0.092217 6.503629
v -3.762020 0.827103 6.503629
v -3.762020 -0.092217 6.414858
v -3.762020 0.827103 6.414858
v -2.976630 -0.092217 6.503629
v -2.976630 0.827103 6.503629
v -2.976630 -0.092217 6.414857
v -2.976630 0.827103 6.414857
v -2.935894 -0.092217 6.503629
v -2.935894 0.827103 6.503629
v -2.935894 -0.092217 6.414857
v -2.935894 0.827103 6.414857
v -2.976630 -0.092217 2.460255
v -2.976630 0.827103 2.460255
v -2.976630 -0.092217 2.371483
v -2.976630 0.827103 2.371483
v -2.935894 -0.092217 2.460255
v -2.935894 0.827103 2.460255
v -2.935894 -0.092217 2.371483
v -2.935894 0.827103 2.371483
v -3.820512 0.801283 6.558570
v -3.820512 0.846631 6.558570
v -3.820512 0.801283 2.278968
v -3.820512 0.846631 2.278968
v -2.902743 0.801283 6.558570
v -2.902743 0.846631 6.558570
v -2.902743 0.801283 2.278968
v -2.902743 0.846631 2.278968
v 1.312866 0.010360 8.013562
v -1.349576 0.010360 8.013495
v 2.384751 -0.006069 -8.125437
v 2.380189 4.756359 8.012547
v 2.382221 4.756359 -8.126267
v 2.377661 -0.006069 8.013371
v 1.314303 3.458097 6.985276
v 1.314548 3.458097 8.012738
v -1.348142 3.458097 6.986856
v -1.347897 3.458097 8.014318
v 1.312621 0.010360 6.986101
v -1.349821 0.010360 6.986032
v 4.201968 -0.006069 -8.124923
v 4.194878 -0.006069 8.013885
v 4.197406 4.756359 8.013061
v 4.199439 4.756359 -8.125754
v -2.384750 -0.006069 8.013685
v -2.382223 4.756359 8.014507
v -2.377660 -0.006069 -8.125128
v -2.380189 4.756359 -8.124301
v -3.927747 -0.006069 8.013249
v -3.925220 4.756359 8.014071
v -3.920657 -0.006069 -8.125565
v -3.923186 4.756359 -8.124738
v 4.195891 -0.006069 5.708341
v 4.196904 -0.006069 3.402797
v 4.197917 -0.006069 1.097253
v 4.198929 -0.006069 -1.208291
v 4.199942 -0.006069 -3.513835
v 4.200955 -0.006069 -5.819378
v 4.197696 4.756359 5.707515
v 4.197987 4.756359 3.401970
v 4.198277 4.756359 1.096426
v 4.198567 4.756359 -1.209119
v 4.198857 4.756359 -3.514664
v 4.199148 4.756359 -5.820209
v -3.924929 4.756359 5.708528
v -3.924639 4.756359 3.402983
v -3.924348 4.756359 1.097439
v -3.924057 4.756359 -1.208105
v -3.923767 4.756359 -3.513649
v -3.923476 4.756359 -5.819193
v -3.926734 -0.006069 5.707704
v -3.925721 -0.006069 3.402159
v -3.924708 -0.006069 1.096614
v -3.923696 -0.006069 -1.208931
v -3.922683 -0.006069 -3.514475
v -3.921670 -0.006069 -5.820020
v 1.490154 4.756359 5.707853
v -1.217388 4.756359 5.708190
v 1.490445 4.756359 3.402308
v -1.217097 4.756359 3.402646
v 1.490735 4.756359 1.096763
v -1.216807 4.756359 1.097101
v 1.491025 4.756359 -1.208781
v -1.216516 4.756359 -1.208443
v 1.491316 4.756359 -3.514326
v -1.216225 4.756359 -3.513988
v 1.491606 4.756359 -5.819870
v -1.215935 4.756359 -5.819532
v 0.427066 3.458097 8.013265
v -0.460415 3.458097 8.013791
v 0.426821 3.458097 6.985802
v -0.460660 3.458097 6.986329
v 1.490958 4.756359 8.013201
v -1.199584 4.756359 8.013854
v 2.382221 4.756359 -8.126267
v -2.380189 4.756359 -8.124301
v 2.382221 4.756359 -8.126267
v -2.380189 4.756359 -8.124301
v -1.215533 4.756359 -8.125285
v 2.421585 4.756359 -8.126267
v -1.176169 4.756359 -8.125284
v 1.497191 4.756359 -8.125776
v 1.487336 -0.006069 8.013674
v -1.220205 -0.006069 8.013461
v 1.494426 -0.006069 -8.125136
v -1.213116 -0.006069 -8.125351
v -1.214128 -0.006069 -5.819807
v 1.493413 -0.006069 -5.819592
v -1.215141 -0.006069 -3.514262
v 1.492400 -0.006069 -3.514048
v -1.216154 -0.006069 -1.208717
v 1.491388 -0.006069 -1.208504
v -1.217167 -0.006069 1.096827
v 1.490375 -0.006069 1.097040
v -1.218179 -0.006069 3.402371
v 1.489362 -0.006069 3.402584
v -1.219192 -0.006069 5.707916
v 1.488349 -0.006069 5.708128
vt 0.0000 0.0000
vt 0.0000 0.0000
vt 0.0000 0.0000
vt 0.0000 0.0000
vt 0.0000 0.0000
vt 0.0000 0.0000
vt 0.4244 0.0307
vt 0.4244 0.1870
vt 0.4217 0.1870
vt 0.4217 0.0308
vt 0.4151 0.1870
vt 0.4151 0.0308
vt 0.0000 0.0000
vt 0.0000 0.0000
vt 0.0000 0.0000
vt 0.0000 0.0000
vt 0.0000 0.0000
vt 0.0000 0.0000
vt 0.4237 0.0323
vt 0.4237 0.1895
vt 0.4170 0.1895
vt 0.4170 0.0323
vt 0.4143 0.1895
vt 0.4143 0.0323
vt 0.4076 0.1895
vt 0.4076 0.0323
vt 0.0000 0.0000
vt 0.0000 0.0000
vt 0.0000 0.0000
vt 0.0000 0.0000
vt 0.0000 0.0000
vt 0.0000 0.0000
vt 0.0000 0.0000
vt 0.0000 0.0000
vt 0.4240 0.0307
vt 0.4240 0.1880
vt 0.4173 0.1880
vt 0.4173 0.0307
vt 0.4146 0.1880
vt 0.4146 0.0308
vt 0.4079 0.1880
vt 0.4079 0.0308
vt 0.0000 0.0000
vt 0.0000 0.0000
vt 0.0000 0.0000
vt 0.0000 0.0000
vt 0.0000 0.0000
vt 0.0000 0.0000
vt 0.0000 0.0000
vt 0.0000 0.0000
vt 0.0000 0.0000
vt 0.0000 0.0000
vt 0.4230 0.0354
vt 0.4230 0.1916
vt 0.4202 0.1916
vt 0.4202 0.0354
vt 0.4136 0.1916
vt 0.4136 0.0354
vt 0.0000 0.0000
vt 0.0000 0.0000
vt 0.0000 0.0000
vt 0.0000 0.0000
vt 0.0000 0.0000
vt 0.0000 0.0000
vt 0.0000 0.0000
vt 0.0000 0.0000
vt 0.7446 0.1527
vt 0.7430 0.1463
vt 0.8374 0.1239
vt 0.8428 0.1291
vt 0.8562 0.0056
vt 0.8645 0.0070
vt 0.0000 0.0000
vt 0.7430 0.0039
vt 0.0000 0.0000
vt 0.0000 0.0000
vt 0.0000 0.0000
vt 0.0000 0.0000
vt 0.4280 0.0369
vt 0.4280 0.1942
vt 0.4213 0.1942
vt 0.4213 0.0369
vt 0.4186 0.1942
vt 0.4186 0.0370
vt 0.4119 0.1942
vt 0.4119 0.0370
vt 0.0000 0.0000
vt 0.0000 0.0000
vt 0.0000 0.0000
vt 0.0000 0.0000
vt 0.0000 0.0000
vt 0.0000 0.0000
vt 0.0000 0.0000
vt 0.0000 0.0000
vt 0.4283 0.0338
vt 0.4283 0.1911
vt 0.4216 0.1911
vt 0.4216 0.0338
vt 0.4189 0.1911
vt 0.4189 0.0339
vt 0.4122 0.1911
vt 0.4122 0.0339
vt 0.0000 0.0000
vt 0.0000 0.0000
vt 0.0000 0.0000
vt 0.0000 0.0000
vt 0.0000 0.0000
vt 0.0000 0.0000
vt 0.0000 0.0000
vt 0.0000 0.0000
vt 0.4258 0.0369
vt 0.4258 0.1942
vt 0.4192 0.1942
vt 0.4192 0.0369
vt 0.4164 0.1942
vt 0.4164 0.0370
vt 0.4098 0.1942
vt 0.4098 0.0370
vt 0.0000 0.0000
vt 0.0000 0.0000
vt 0.0000 0.0000
vt 0.0000 0.0000
vt 0.0000 0.0000
vt 0.0000 0.0000
vt 0.0000 0.0000
vt 0.0000 0.0000
vt 0.4289 0.0292
vt 0.4289 0.1864
vt 0.4223 0.1864
vt 0.4223 0.0292
vt 0.4195 0.1864
vt 0.4195 0.0292
vt 0.4129 0.1864
vt 0.4129 0.0292
vt 0.0000 0.0000
vt 0.0000 0.0000
vt 0.0000 0.0000
vt 0.0000 0.0000
vt 0.0000 0.0000
vt 0.0000 0.0000
vt 0.0000 0.0000
vt 0.0000 0.0000
vt 0.0000 0.0000
vt 0.0000 0.0000
vt 0.6057 0.1527
vt 0.6042 0.1463
vt 0.6985 0.1239
vt 0.7039 0.1291
vt 0.7174 0.0056
vt 0.7256 0.0070
vt 0.0000 0.0000
vt 0.6042 0.0039
vt 0.0000 0.0000
vt 0.0000 0.0000
vt 0.0000 0.0000
vt 0.0000 0.0000
vt 0.4277 0.0323
vt 0.4277 0.1895
vt 0.4210 0.1895
vt 0.4210 0.0323
vt 0.4183 0.1895
vt 0.4183 0.0323
vt 0.4116 0.1895
vt 0.4116 0.0323
vt 0.0000 0.0000
vt 0.0000 0.0000
vt 0.0000 0.0000
vt 0.0000 0.0000
vt 0.0000 0.0000
vt 0.0000 0.0000
vt 0.0000 0.0000
vt 0.0000 0.0000
vt 0.0000 0.0000
vt 0.0000 0.0000
vt 0.0000 0.0000
vt 0.0000 0.0000
vt 0.0000 0.0000
vt 0.0000 0.0000
vt 0.0000 0.0000
vt 0.0000 0.0000
vt 0.0000 0.0000
vt 0.0000 0.0000
vt 0.0000 0.0000
vt 0.0000 0.0000
vt 0.0000 0.0000
vt 0.0000 0.0000
vt 0.0000 0.0000
vt 0.0000 0.0000
vt 0.4261 0.0292
vt 0.4261 0.1864
vt 0.4195 0.1864
vt 0.4195 0.0292
vt 0.4167 0.1864
vt 0.4167 0.0292
vt 0.4101 0.1864
vt 0.4101 0.0292
vt 0.0000 0.0000
vt 0.0000 0.0000
vt 0.0000 0.0000
vt 0.0000 0.0000
vt 0.0000 0.0000
vt 0.0000 0.0000
vt 0.0000 0.0000
vt 0.0000 0.0000
vt 0.0000 0.0000
vt 0.0000 0.0000
vt 0.8846 0.1420
vt 0.8846 0.1352
vt 0.9877 0.1352
vt 0.9877 0.1420
vt 0.0000 0.0000
vt 0.0000 0.0000
vt 0.8826 0.0055
vt 0.9857 0.0055
vt 0.7130 0.6164
vt 0.7129 0.4716
vt 0.7682 0.4716
vt 0.7683 0.6164
vt 0.6913 0.6724
vt 0.6913 0.4769
vt 0.7793 0.4769
vt 0.7793 0.6724
vt 0.7573 0.5995
vt 0.7573 0.4946
vt 0.7897 0.4941
vt 0.7897 0.6389
vt 0.7399 0.4892
vt 0.7399 0.5940
vt 0.7085 0.6335
vt 0.7084 0.4887
vt 0.8028 0.8605
vt 0.6712 0.4058
vt 0.6554 0.2589
vt 0.9717 0.9711
vt 0.7481 0.5310
vt 0.7670 0.5310
vt 0.7897 0.5586
vt 0.7559 0.5586
vt 0.7205 0.5969
vt 0.6818 0.5969
vt 0.6816 0.5399
vt 0.7203 0.5398
vt 0.6913 0.5525
vt 0.7882 0.5525
vt 0.7880 0.6033
vt 0.6911 0.6033
vt 0.7697 0.4809
vt 0.7697 0.6429
vt 0.7051 0.6429
vt 0.7051 0.4809
vt 0.7817 0.4958
vt 0.7818 0.6275
vt 0.7315 0.6275
vt 0.7315 0.4958
vt 0.7376 0.6260
vt 0.7375 0.4943
vt 0.7802 0.4943
vt 0.7803 0.6260
vt 0.8397 0.4642
vt 0.8397 0.6784
vt 0.9628 0.6784
vt 0.9628 0.4642
vt 0.6195 0.4377
vt 0.6195 0.3696
vt 0.5395 0.3696
vt 0.5396 0.4377
vt 0.2654 0.9632
vt 0.1525 0.9632
vt 0.1526 0.6944
vt 0.2654 0.6944
vt 0.7635 0.4709
vt 0.7635 0.6157
vt 0.7166 0.6157
vt 0.7165 0.4709
vt 0.1544 0.2341
vt 0.0710 0.2341
vt 0.0710 0.3051
vt 0.1544 0.3052
vt 0.1710 0.3799
vt 0.0936 0.3799
vt 0.0935 0.4459
vt 0.1709 0.4459
vt 0.2646 0.3742
vt 0.1812 0.3742
vt 0.1811 0.3017
vt 0.2646 0.3017
vt 0.2646 0.3027
vt 0.1811 0.3027
vt 0.1811 0.3737
vt 0.2645 0.3737
vt 0.1542 0.3034
vt 0.0708 0.3034
vt 0.0707 0.2338
vt 0.1542 0.2338
vt 0.1551 0.2338
vt 0.0717 0.2338
vt 0.0717 0.3048
vt 0.1551 0.3048
vt 0.1548 0.3041
vt 0.0714 0.3041
vt 0.0713 0.2341
vt 0.1548 0.2341
vt 0.9424 0.9632
vt 0.8296 0.9632
vt 0.8296 0.6944
vt 0.9424 0.6944
vt 0.7167 0.9632
vt 0.7168 0.6944
vt 0.6039 0.9632
vt 0.6039 0.6944
vt 0.4911 0.9632
vt 0.4911 0.6944
vt 0.3782 0.9632
vt 0.3782 0.6944
vt 0.0000 0.0000
vt 0.6636 0.4080
vt 0.5808 0.4080
vt 0.7464 0.4080
vt 0.8292 0.4080
vt 0.6910 0.3400
vt 0.6220 0.3400
vt 0.5528 0.2720
vt 0.4976 0.2720
vt 0.4146 0.2040
vt 0.3732 0.2040
vt 0.5387 0.2319
vt 0.6181 0.2319
vt 0.6181 0.2996
vt 0.5387 0.2995
vt 0.6181 0.3672
vt 0.5387 0.3672
vt 0.1014 0.4642
vt 0.1014 0.6784
vt 0.2244 0.6784
vt 0.2244 0.4642
vt 0.3475 0.6784
vt 0.3475 0.4642
vt 0.4705 0.6784
vt 0.4705 0.4642
vt 0.5936 0.6784
vt 0.5936 0.4642
vt 0.7167 0.6784
vt 0.7167 0.4642
vt 0.3799 0.2995
vt 0.4593 0.2995
vt 0.4593 0.3672
vt 0.3799 0.3672
vt 0.3799 0.2319
vt 0.4593 0.2319
vt 0.3872 0.2720
vt 0.4424 0.2720
vt 0.3318 0.2040
vt 0.2904 0.2040
vt 0.4840 0.3400
vt 0.5530 0.3400
vt 0.7979 0.5969
vt 0.7592 0.5969
vt 0.7590 0.5398
vt 0.7977 0.5398
vt 0.7104 0.5310
vt 0.7293 0.5310
vt 0.7222 0.5586
vt 0.6884 0.5586
vt 0.0000 0.0000
vt 0.0000 0.0000
vt 0.0000 0.0000
vt 0.0000 0.0000
vt 0.0000 0.0000
vt 0.0000 0.0000
vt 0.0000 0.0000
vt 0.0000 0.0000
vt 0.0000 0.0000
vt 0.0000 0.0000
vt 0.5389 0.4348
vt 0.4593 0.4348
vt 0.3799 0.4348
vt 0.1540 0.3039
vt 0.0706 0.3039
vt 0.0705 0.2343
vt 0.1540 0.2343
vt 0.3557 0.0789
vt 0.2723 0.0789
vt 0.2723 0.0097
vt 0.3557 0.0097
vt 0.1560 0.2328
vt 0.0725 0.2328
vt 0.0725 0.3039
vt 0.1559 0.3039
vt 0.3567 0.1537
vt 0.2733 0.1537
vt 0.2733 0.2248
vt 0.3567 0.2248
vt 0.1550 0.3034
vt 0.0716 0.3034
vt 0.0716 0.2338
vt 0.1550 0.2338
vt 0.3577 0.2238
vt 0.2743 0.2238
vt 0.2743 0.1537
vt 0.3577 0.1537
vt 0.3570 0.0096
vt 0.2736 0.0096
vt 0.2736 0.0807
vt 0.3570 0.0807
vt 0.3568 0.1542
vt 0.2734 0.1542
vt 0.2733 0.2253
vt 0.3568 0.2253
vt 0.3563 0.0803
vt 0.2728 0.0803
vt 0.2728 0.0097
vt 0.3562 0.0097
vt 0.3568 0.2247
vt 0.2734 0.2247
vt 0.3258 0.3800
vt 0.2484 0.3800
vt 0.2483 0.4459
vt 0.3257 0.4459
vt 0.1540 0.2323
vt 0.0705 0.2323
vt 0.0705 0.3034
vt 0.1539 0.3034
vt 0.3557 0.0087
vt 0.2723 0.0087
vt 0.2722 0.0797
vt 0.3557 0.0797
vn -1.0000 0.0000 -0.0000
vn -0.0000 0.0000 -1.0000
vn 1.0000 0.0000 -0.0000
vn 0.0000 0.0000 1.0000
vn 0.0000 -1.0000 -0.0000
vn 0.0000 1.0000 0.0000
vn -0.0003 0.0002 1.0000
vn 1.0000 -0.0005 -0.0002
vn 0.0001 0.0002 1.0000
vn 0.0001 -0.0002 1.0000
vn 0.0007 -0.0004 1.0000
vn -1.0000 0.0005 0.0002
vn 0.0003 -0.0002 -1.0000
vn 0.0003 0.0002 -1.0000
vn -1.0000 -0.0005 -0.0003
vn -0.0003 -0.0002 1.0000
vn -1.0000 0.0005 -0.0003
vn -1.0000 0.0003 -0.0003
vn -1.0000 0.0002 -0.0003
vn -1.0000 -0.0000 -0.0003
vn -1.0000 -0.0002 -0.0003
vn -1.0000 -0.0003 -0.0003
vn 0.0006 0.0003 1.0000
vn 0.0003 -0.0000 1.0000
vn 0.0000 1.0000 -0.0008
vn 0.0000 -1.0000 -0.0020
usemtl e1
s off
f 1/1/1 2/2/1 4/3/1 3/4/1
f 3/4/2 4/3/2 8/5/2 7/6/2
f 7/7/3 8/8/3 6/9/3 5/10/3
f 5/10/4 6/9/4 2/11/4 1/12/4
f 3/4/5 7/6/5 5/13/5 1/1/5
f 8/5/6 4/3/6 2/2/6 6/14/6
f 9/15/1 10/16/1 12/17/1 11/18/1
f 11/19/2 12/20/2 16/21/2 15/22/2
f 15/22/3 16/21/3 14/23/3 13/24/3
f 13/24/4 14/23/4 10/25/4 9/26/4
f 11/18/5 15/27/5 13/28/5 9/15/5
f 16/29/6 12/17/6 10/16/6 14/30/6
f 17/31/1 18/32/1 20/33/1 19/34/1
f 19/35/2 20/36/2 24/37/2 23/38/2
f 23/38/3 24/37/3 22/39/3 21/40/3
f 21/40/4 22/39/4 18/41/4 17/42/4
f 19/34/5 23/43/5 21/44/5 17/31/5
f 24/45/6 20/33/6 18/32/6 22/46/6
f 25/47/1 26/48/1 28/49/1 27/50/1
f 27/50/2 28/49/2 32/51/2 31/52/2
f 31/53/3 32/54/3 30/55/3 29/56/3
f 29/56/4 30/55/4 26/57/4 25/58/4
f 27/50/5 31/52/5 29/59/5 25/47/5
f 32/51/6 28/49/6 26/48/6 30/60/6
f 33/61/1 34/62/1 36/63/1 35/64/1
f 35/64/2 36/63/2 40/65/2 39/66/2
f 39/67/3 40/68/3 38/69/3 37/70/3
f 37/70/4 38/69/4 34/71/4 33/72/4
f 35/64/5 39/66/5 37/73/5 33/61/5
f 40/68/6 36/74/6 34/71/6 38/69/6
f 41/75/1 42/76/1 44/77/1 43/78/1
f 43/79/2 44/80/2 48/81/2 47/82/2
f 47/82/3 48/81/3 46/83/3 45/84/3
f 45/84/4 46/83/4 42/85/4 41/86/4
f 43/78/5 47/87/5 45/88/5 41/75/5
f 48/89/6 44/77/6 42/76/6 46/90/6
f 49/91/1 50/92/1 52/93/1 51/94/1
f 51/95/2 52/96/2 56/97/2 55/98/2
f 55/98/3 56/97/3 54/99/3 53/100/3
f 53/100/4 54/99/4 50/101/4 49/102/4
f 51/94/5 55/103/5 53/104/5 49/91/5
f 56/105/6 52/93/6 50/92/6 54/106/6
f 57/107/1 58/108/1 60/109/1 59/110/1
f 59/111/2 60/112/2 64/113/2 63/114/2
f 63/114/3 64/113/3 62/115/3 61/116/3
f 61/116/4 62/115/4 58/117/4 57/118/4
f 59/110/5 63/119/5 61/120/5 57/107/5
f 64/121/6 60/109/6 58/108/6 62/122/6
f 65/123/1 66/124/1 68/125/1 67/126/1
f 67/127/2 68/128/2 72/129/2 71/130/2
f 71/130/3 72/129/3 70/131/3 69/132/3
f 69/132/4 70/131/4 66/133/4 65/134/4
f 67/126/5 71/135/5 69/136/5 65/123/5
f 72/137/6 68/125/6 66/124/6 70/138/6
f 73/139/1 74/140/1 76/141/1 75/142/1
f 75/142/2 76/141/2 80/143/2 79/144/2
f 79/145/3 80/146/3 78/147/3 77/148/3
f 77/148/4 78/147/4 74/149/4 73/150/4
f 75/142/5 79/144/5 77/151/5 73/139/5
f 80/146/6 76/152/6 74/149/6 78/147/6
f 81/153/1 82/154/1 84/155/1 83/156/1
f 83/157/2 84/158/2 88/159/2 87/160/2
f 87/160/3 88/159/3 86/161/3 85/162/3
f 85/162/4 86/161/4 82/163/4 81/164/4
f 83/156/5 87/165/5 85/166/5 81/153/5
f 88/167/6 84/155/6 82/154/6 86/168/6
f 89/169/1 90/170/1 92/171/1 91/172/1
f 91/172/2 92/171/2 96/173/2 95/174/2
f 95/174/3 96/173/3 94/175/3 93/176/3
f 93/176/4 94/175/4 90/170/4 89/169/4
f 91/172/5 95/174/5 93/176/5 89/169/5
f 96/173/6 92/171/6 90/170/6 94/175/6
f 97/177/1 98/178/1 100/179/1 99/180/1
f 99/180/2 100/179/2 104/181/2 103/182/2
f 103/182/3 104/181/3 102/183/3 101/184/3
f 101/184/4 102/183/4 98/178/4 97/177/4
f 99/180/5 103/182/5 101/184/5 97/177/5
f 104/181/6 100/179/6 98/178/6 102/183/6
f 105/185/1 106/186/1 108/187/1 107/188/1
f 107/189/2 108/190/2 112/191/2 111/192/2
f 111/192/3 112/191/3 110/193/3 109/194/3
f 109/194/4 110/193/4 106/195/4 105/196/4
f 107/188/5 111/197/5 109/198/5 105/185/5
f 112/199/6 108/187/6 106/186/6 110/200/6
f 113/201/1 114/202/1 116/203/1 115/204/1
f 115/204/2 116/203/2 120/205/2 119/206/2
f 119/207/3 120/208/3 118/209/3 117/210/3
f 117/211/4 118/212/4 114/202/4 113/201/4
f 115/204/5 119/206/5 117/211/5 113/201/5
f 120/208/6 116/213/6 114/214/6 118/209/6
f 124/215/7 126/216/7 134/217/7 135/218/7
f 130/219/8 122/220/8 132/221/8 129/222/8
f 128/223/9 121/224/9 126/225/9 124/226/9
f 122/227/10 130/228/10 138/229/10 137/230/10
f 121/231/4 122/232/4 137/233/4 126/234/4
f 181/235/11 128/236/11 124/237/11 185/238/11
f 182/239/5 130/240/5 129/241/5 184/242/5
f 122/243/6 121/244/6 131/245/6 132/246/6
f 121/247/12 128/248/12 127/249/12 131/250/12
f 123/251/13 125/252/13 136/253/13 133/254/13
f 140/255/14 139/256/14 143/257/14 144/258/14
f 150/259/15 156/260/15 136/261/15 133/262/15
f 136/263/5 156/264/5 179/265/5 194/266/5
f 162/267/15 144/268/15 143/269/15 168/270/15
f 137/271/16 138/272/16 142/273/16 141/274/16
f 209/275/6 163/276/6 141/277/6 196/278/6
f 198/279/6 143/280/6 168/281/6 199/282/6
f 199/283/6 168/284/6 167/285/6 201/286/6
f 201/287/6 167/288/6 166/289/6 203/290/6
f 203/291/6 166/292/6 165/293/6 205/294/6
f 205/295/6 165/296/6 164/297/6 207/298/6
f 207/299/6 164/300/6 163/301/6 209/302/6
f 142/303/17 157/304/17 163/305/17 141/306/17
f 157/304/18 158/307/18 164/308/18 163/305/18
f 158/307/19 159/309/19 165/310/19 164/308/19
f 159/309/20 160/311/20 166/312/20 165/310/20
f 160/311/21 161/313/21 167/314/21 166/312/21
f 161/313/22 162/267/22 168/270/22 167/314/22
f 142/303/6 186/315/6 170/316/6 157/317/6
f 169/318/6 151/319/6 152/320/6 171/321/6
f 171/321/6 152/320/6 153/322/6 173/323/6
f 173/323/6 153/322/6 154/324/6 175/325/6
f 175/326/6 154/327/6 155/328/6 177/329/6
f 177/329/6 155/328/6 156/330/6 179/331/6
f 134/332/17 135/333/17 151/334/17 145/335/17
f 145/335/18 151/334/18 152/336/18 146/337/18
f 146/337/19 152/336/19 153/338/19 147/339/19
f 147/339/20 153/338/20 154/340/20 148/341/20
f 148/341/21 154/340/21 155/342/21 149/343/21
f 149/343/22 155/342/22 156/260/22 150/259/22
f 161/344/6 178/345/6 180/346/6 162/347/6
f 178/345/6 177/329/6 179/331/6 180/346/6
f 160/348/6 176/349/6 178/345/6 161/344/6
f 176/349/6 175/326/6 177/329/6 178/345/6
f 159/350/6 174/351/6 176/352/6 160/353/6
f 174/351/6 173/323/6 175/325/6 176/352/6
f 158/354/6 172/355/6 174/351/6 159/350/6
f 172/355/6 171/321/6 173/323/6 174/351/6
f 157/317/6 170/316/6 172/355/6 158/354/6
f 170/316/6 169/318/6 171/321/6 172/355/6
f 128/356/5 181/357/5 183/358/5 127/359/5
f 181/357/5 182/239/5 184/242/5 183/358/5
f 130/360/23 182/361/23 186/362/23 138/363/23
f 182/361/24 181/235/24 185/238/24 186/362/24
f 170/316/6 186/315/6 185/238/6 169/318/6
f 135/333/5 185/238/5 169/318/5 151/319/5
f 140/364/4 125/365/4 187/366/4 188/367/4
f 188/367/25 187/366/25 189/368/25 191/369/25 190/370/25
f 191/369/26 189/368/26 192/371/26 194/372/26 193/373/26
f 180/346/6 179/331/6 194/374/6 191/375/6
f 144/376/6 162/347/6 180/346/6 191/375/6
f 146/377/6 208/378/6 210/379/6 145/380/6
f 208/381/6 207/382/6 209/383/6 210/384/6
f 147/385/6 206/386/6 208/387/6 146/388/6
f 206/389/6 205/390/6 207/391/6 208/392/6
f 148/393/6 204/394/6 206/395/6 147/396/6
f 204/397/6 203/398/6 205/399/6 206/400/6
f 149/401/6 202/402/6 204/403/6 148/404/6
f 202/405/6 201/406/6 203/407/6 204/408/6
f 150/409/6 200/410/6 202/411/6 149/412/6
f 200/413/6 199/414/6 201/406/6 202/405/6
f 133/415/6 197/416/6 200/417/6 150/418/6
f 197/416/6 198/279/6 199/282/6 200/417/6
f 145/419/6 210/420/6 195/421/6 134/422/6
f 210/423/6 209/424/6 196/425/6 195/426/6
l 123 139
